<svg width="322" height="104" viewBox="0 0 322 104" fill="none" xmlns="http://www.w3.org/2000/svg">
<g opacity="0.8">
<path fill-rule="evenodd" clip-rule="evenodd" d="M49.7985 84.6584C55.6148 90.2061 61.9557 95.4384 65.7791 102.656C66.0082 103.085 66.5411 103.247 66.9743 103.017C67.4048 102.784 67.5717 102.249 67.345 101.818C63.4316 94.4318 56.9765 89.0477 51.0243 83.3718C50.6741 83.0344 50.1114 83.0513 49.7739 83.4071C49.4337 83.7606 49.4482 84.321 49.7985 84.6584Z" fill="white"/>
<path fill-rule="evenodd" clip-rule="evenodd" d="M57.1759 75.4629C60.5928 75.4265 63.7871 75.9757 66.8133 77.5588C67.2454 77.7852 67.7801 77.6157 68.0106 77.1838C68.2386 76.7495 68.0732 76.2138 67.6437 75.9898C64.3533 74.268 60.888 73.6555 57.174 73.6942C56.6849 73.6982 56.2884 74.0979 56.2908 74.5878C56.2907 75.075 56.6894 75.4693 57.1759 75.4629Z" fill="white"/>
<path fill-rule="evenodd" clip-rule="evenodd" d="M69.0827 51.9936C72.6026 49.8268 76.3652 49.0484 80.4393 49.719C80.9198 49.7978 81.3782 49.4712 81.4601 48.9882C81.5445 48.5076 81.2211 48.0515 80.7406 47.9727C76.231 47.2315 72.0632 48.0892 68.1658 50.4882C67.7478 50.744 67.6165 51.292 67.8684 51.7062C68.1228 52.123 68.6673 52.2518 69.0827 51.9936Z" fill="white"/>
<path fill-rule="evenodd" clip-rule="evenodd" d="M43.4106 21.3921C42.3593 21.533 41.3179 21.7678 40.3063 22.106C39.8556 22.2563 38.9611 22.6333 38.4065 23.1495C37.8134 23.6976 37.5578 24.3823 37.8338 25.1159C38.2008 26.0897 38.7816 26.5506 39.3968 26.7221C39.9888 26.8878 40.6707 26.7762 41.3594 26.4215C42.6752 25.7433 44.0429 24.1224 44.6554 23.0447C45.7055 22.9733 46.7602 23.0016 47.8053 23.1243C55.5889 24.0388 61.382 31.5715 62.1277 41.4541C62.388 44.9135 59.9163 49.4366 56.7484 53.8616C51.8166 60.7522 45.0813 67.3334 43.1721 69.3198C42.7017 69.8113 42.4773 70.1527 42.4491 70.2361C42.305 70.641 42.4522 70.9138 42.5771 71.0801C42.7603 71.3186 42.9732 71.4352 43.1809 71.4895C43.463 71.5614 43.781 71.5257 44.1032 71.3178C44.2799 71.2018 44.4819 71.0003 44.681 70.7707C44.8175 70.61 44.941 70.4112 45.0738 70.3278C45.9275 69.7967 46.8077 69.3203 47.6872 68.8342C50.6377 67.1947 53.6876 65.9172 56.8499 64.7466C66.8974 61.0263 77.1869 56.7986 88.0481 56.8768C88.5352 56.8802 88.9393 56.4878 88.946 55.9985C88.9552 55.5115 88.5657 55.1125 88.0757 55.1071C76.9983 55.0259 66.496 59.294 56.2489 63.0874C53.5592 64.0835 50.948 65.1556 48.4092 66.452C51.6566 63.0291 56.0185 58.1699 59.2697 53.318C62.1614 49.0031 64.1431 44.6684 63.8903 41.3056C63.0736 30.4795 56.5511 22.3667 48.0262 21.3669C47.1141 21.2603 46.1922 21.2169 45.2734 21.2434C47.0431 13.8623 43.0475 6.6299 35.7919 4.33784C35.3264 4.19008 34.8285 4.4501 34.6773 4.91518C34.5287 5.38263 34.7822 5.87889 35.2476 6.02666C41.7858 8.0922 45.2932 14.7357 43.4106 21.3921ZM42.291 23.3843C41.8064 23.4933 41.3275 23.6276 40.8521 23.7842C40.5984 23.8696 40.1293 24.0507 39.7631 24.3123C39.6782 24.3744 39.5671 24.4914 39.5169 24.5466C39.6156 24.7995 39.7172 24.9705 39.8847 25.0166C40.0931 25.0754 40.3191 24.9734 40.5603 24.8493C41.1662 24.5386 41.7917 23.9653 42.291 23.3843Z" fill="white"/>
</g>
<g opacity="0.7">
<path fill-rule="evenodd" clip-rule="evenodd" d="M319.605 14.1615C311.159 29.8664 294.288 36.2514 278.618 27.4098C278.096 27.1154 277.435 27.2995 277.14 27.8147C276.846 28.3391 277.03 29.0015 277.552 29.296C294.348 38.7815 312.462 32.0193 321.515 15.1919C321.799 14.6675 321.601 14.005 321.074 13.7197C320.547 13.4437 319.889 13.637 319.605 14.1615Z" fill="white"/>
<path d="M291.805 20.6742C293.55 20.6742 294.964 19.2599 294.964 17.5153C294.964 15.7706 293.55 14.3563 291.805 14.3563C290.06 14.3563 288.646 15.7706 288.646 17.5153C288.646 19.2599 290.06 20.6742 291.805 20.6742Z" fill="white"/>
<path d="M304.882 17.3139C306.593 17.3139 307.979 15.9273 307.979 14.2167C307.979 12.5062 306.593 11.1195 304.882 11.1195C303.172 11.1195 301.785 12.5062 301.785 14.2167C301.785 15.9273 303.172 17.3139 304.882 17.3139Z" fill="white"/>
</g>
</svg>
