<svg width="77" height="77" viewBox="0 0 77 77" fill="none" xmlns="http://www.w3.org/2000/svg">
<g opacity="0.7">
<path fill-rule="evenodd" clip-rule="evenodd" d="M72.9025 24.2318C58.4506 51.1047 29.5815 62.0301 2.76842 46.9013C1.87581 46.3975 0.743872 46.7125 0.240103 47.5941C-0.263666 48.4914 0.0512233 49.6249 0.943839 50.1286C29.6839 66.3594 60.6798 54.7886 76.1707 25.995C76.6556 25.0977 76.3171 23.964 75.4151 23.476C74.513 23.0037 73.3874 23.3345 72.9025 24.2318Z" fill="white"/>
<path d="M25.3328 35.376C28.3181 35.376 30.7382 32.956 30.7382 29.9707C30.7382 26.9854 28.3181 24.5654 25.3328 24.5654C22.3475 24.5654 19.9275 26.9854 19.9275 29.9707C19.9275 32.956 22.3475 35.376 25.3328 35.376Z" fill="white"/>
<path d="M47.7093 29.626C50.6362 29.626 53.009 27.2533 53.009 24.3264C53.009 21.3994 50.6362 19.0267 47.7093 19.0267C44.7823 19.0267 42.4096 21.3994 42.4096 24.3264C42.4096 27.2533 44.7823 29.626 47.7093 29.626Z" fill="white"/>
</g>
</svg>
